<svg width="55" height="55" viewBox="0 0 55 55" fill="none" xmlns="http://www.w3.org/2000/svg">
<path d="M38.9585 4.58331H16.0418C9.71357 4.58331 4.5835 9.71338 4.5835 16.0416V38.9583C4.5835 45.2866 9.71357 50.4167 16.0418 50.4167H38.9585C45.2868 50.4167 50.4168 45.2866 50.4168 38.9583V16.0416C50.4168 9.71338 45.2868 4.58331 38.9585 4.58331Z" stroke="white" stroke-width="2" stroke-linecap="round" stroke-linejoin="round"/>
<path d="M36.6668 26.0563C36.9496 27.9635 36.6239 29.9113 35.7358 31.6228C34.8478 33.3342 33.4428 34.722 31.7205 35.5889C29.9983 36.4557 28.0466 36.7574 26.143 36.4511C24.2394 36.1448 22.4808 35.246 21.1175 33.8827C19.7541 32.5193 18.8554 30.7608 18.549 28.8572C18.2427 26.9536 18.5445 25.0019 19.4113 23.2796C20.2782 21.5574 21.666 20.1523 23.3774 19.2643C25.0888 18.3763 27.0367 18.0505 28.9439 18.3334C30.8893 18.6218 32.6904 19.5284 34.0811 20.9191C35.4718 22.3097 36.3783 24.1108 36.6668 26.0563Z" stroke="white" stroke-width="2" stroke-linecap="round" stroke-linejoin="round"/>
<path d="M40.104 14.8958H40.1277" stroke="white" stroke-width="2" stroke-linecap="round" stroke-linejoin="round"/>
</svg>
