<svg width="55" height="55" viewBox="0 0 55 55" fill="none" xmlns="http://www.w3.org/2000/svg">
<path d="M52.7082 6.87497C50.5136 8.42294 48.0838 9.60689 45.5123 10.3812C44.1322 8.79427 42.2979 7.66948 40.2576 7.15897C38.2173 6.64847 36.0695 6.77688 34.1046 7.52685C32.1397 8.27681 30.4525 9.61214 29.2713 11.3522C28.09 13.0923 27.4716 15.1532 27.4998 17.2562V19.5479C23.4725 19.6523 19.4819 18.7591 15.8834 16.9479C12.2849 15.1366 9.19015 12.4635 6.87484 9.16664C6.87484 9.16664 -2.29183 29.7916 18.3332 38.9583C13.6135 42.162 7.99124 43.7684 2.2915 43.5416C22.9165 55 48.1248 43.5416 48.1248 17.1875C48.1227 16.5491 48.0613 15.9124 47.9415 15.2854C50.2804 12.9788 51.9309 10.0666 52.7082 6.87497V6.87497Z" stroke="#F3F3F3" stroke-width="2" stroke-linecap="round" stroke-linejoin="round"/>
</svg>
